<?xml version="1.0" standalone="no"?>
<!DOCTYPE svg PUBLIC "-//W3C//DTD SVG 20010904//EN"
 "http://www.w3.org/TR/2001/REC-SVG-20010904/DTD/svg10.dtd">
<svg version="1.0" xmlns="http://www.w3.org/2000/svg"
 width="2000.000000pt" height="2000.000000pt" viewBox="0 0 2000.000000 2000.000000"
 preserveAspectRatio="xMidYMid meet">
<metadata>
Created by potrace 1.11, written by Peter Selinger 2001-2013
</metadata>
<g transform="translate(0.000000,2000.000000) scale(0.100000,-0.100000)"
fill="#000000" stroke="none">
<path d="M96 15849 c-4 -2240 -3 -4076 1 -4080 5 -5 276 -98 603 -207 l595
-199 -4 -54 c-1 -30 -4 -55 -5 -56 -2 -2 -270 87 -597 196 -327 109 -595 198
-595 197 -1 0 -4 -1772 -6 -3937 l-4 -3936 131 62 c71 34 578 279 1125 545
547 266 1067 518 1156 560 l160 77 -4 -29 c-3 -20 2 -36 17 -51 l20 -23 -1302
-631 -1302 -631 -3 -1771 -2 -1771 5380 0 c4754 0 5380 2 5380 15 0 16 -506
3627 -516 3683 l-6 32 56 0 c49 0 56 -2 61 -22 3 -13 115 -813 250 -1778 135
-965 249 -1763 253 -1773 6 -14 466 620 1996 2752 1255 1749 1993 2768 2001
2765 7 -3 33 -8 58 -12 l46 -7 -581 -808 c-319 -445 -578 -810 -576 -811 1 -2
1283 457 2848 1018 1565 562 2918 1048 3008 1080 l162 58 0 951 0 952 -88 -88
-87 -87 -95 0 -95 0 -180 -180 c-99 -99 -183 -180 -186 -180 -4 0 -26 38 -49
85 -35 67 -44 98 -49 157 -7 82 -23 113 -79 152 -20 14 -59 48 -87 76 -27 27
-54 50 -60 50 -7 0 -29 29 -49 65 -21 35 -45 70 -52 76 -8 6 -14 17 -14 23 0
7 -13 25 -28 40 -26 24 -30 25 -42 11 -7 -9 -20 -13 -29 -10 -23 9 -221 -192
-221 -224 0 -20 -3 -22 -12 -13 -9 9 -88 12 -293 12 l-281 0 -39 -40 c-26 -27
-42 -37 -49 -30 -7 7 34 55 127 148 l137 137 0 85 0 85 142 142 142 142 -23
25 c-13 14 -48 63 -77 108 l-53 83 67 68 c53 53 73 67 97 67 26 0 58 28 230
200 130 130 205 198 214 195 8 -3 71 -14 140 -25 69 -10 151 -28 181 -40 30
-11 64 -20 75 -20 11 -1 30 -6 43 -13 22 -13 22 -13 -28 -62 l-49 -49 88 -91
c67 -69 92 -103 105 -141 9 -27 27 -62 40 -79 l25 -30 -61 -61 -60 -62 52
-143 c30 -79 59 -151 67 -159 9 -10 41 -15 111 -18 l97 -3 170 170 170 171 4
1447 3 1446 -73 -6 c-41 -4 -178 -12 -306 -18 l-231 -12 10 -22 c7 -16 7 -29
-1 -43 -14 -26 -2687 -3752 -2705 -3770 -9 -9 -33 -12 -74 -10 l-62 3 1375
1915 c756 1053 1373 1916 1371 1918 -3 2 -1059 -54 -2348 -123 l-2343 -128
-67 -66 -67 -66 17 -95 17 -95 118 -39 118 -40 78 78 77 77 37 -78 c39 -86 51
-124 67 -228 6 -38 15 -74 20 -80 4 -5 10 -47 11 -92 3 -80 3 -83 -28 -115
-17 -18 -35 -42 -41 -53 -22 -44 -52 -144 -66 -216 -12 -65 -12 -84 0 -143 8
-38 16 -71 18 -75 3 -4 7 -36 11 -71 3 -34 7 -66 9 -69 2 -3 7 -23 10 -44 3
-21 10 -46 16 -56 7 -14 -3 -30 -53 -79 -55 -55 -67 -62 -102 -62 -37 0 -47
-7 -147 -107 -74 -74 -108 -102 -108 -89 0 51 -25 98 -66 127 -23 16 -49 29
-56 29 -8 0 -40 27 -73 60 l-59 60 -26 -23 c-32 -30 -97 -67 -116 -67 -9 0
-33 -18 -54 -41 -34 -37 -40 -40 -61 -29 -29 16 -137 7 -256 -23 l-90 -22 274
-874 275 -874 -43 -43 c-24 -24 -44 -42 -45 -41 -2 1 -125 392 -274 867 -149
476 -275 879 -281 896 l-10 32 -92 -50 c-102 -55 -129 -78 -155 -129 -16 -32
-20 -34 -80 -40 -59 -6 -67 -10 -112 -54 -28 -27 -53 -44 -59 -40 -7 4 -18 1
-26 -5 -23 -19 -39 1 -70 86 -23 63 -26 85 -21 132 4 31 14 64 22 73 9 10 19
44 23 76 4 32 10 63 13 69 4 6 3 82 -1 170 -8 147 -11 165 -41 237 -43 102
-72 127 -149 127 -51 0 -60 -3 -87 -31 -47 -50 -80 -69 -146 -86 -35 -9 -69
-20 -76 -25 -18 -15 -17 -207 3 -234 8 -12 12 -23 10 -26 -3 -2 13 -21 35 -42
36 -34 40 -43 42 -89 3 -103 -1 -119 -35 -155 -15 -16 -24 -32 -20 -35 9 -9
-107 -127 -124 -127 -7 0 -13 -4 -13 -8 0 -4 -25 -21 -55 -37 -31 -16 -74 -46
-97 -67 -23 -21 -44 -38 -47 -38 -4 0 -37 31 -74 68 l-67 68 -117 -13 c-64 -6
-128 -15 -143 -18 -50 -11 -160 -142 -160 -191 0 -9 -41 -59 -92 -110 -86 -89
-90 -95 -75 -112 15 -17 15 -19 0 -35 -16 -15 -15 -18 7 -42 19 -20 21 -27 10
-40 -15 -18 -145 -21 -232 -5 -98 18 -203 84 -272 171 -48 59 -106 161 -106
186 0 7 -20 51 -45 99 -63 120 -101 154 -307 274 l-97 56 145 145 c133 132
144 147 144 180 0 20 6 52 14 70 19 43 190 214 208 207 7 -3 77 1 156 8 174
17 216 33 271 107 52 70 82 97 106 93 11 -2 27 2 35 9 8 7 27 15 41 18 37 9
359 216 414 267 17 15 45 35 63 44 47 24 170 144 193 188 11 21 17 38 13 38
-4 0 -2 6 5 13 6 8 22 63 37 123 15 62 40 135 60 171 l33 62 -32 -5 c-18 -2
-133 -8 -257 -14 -124 -6 -250 -13 -280 -16 l-55 -5 -1 53 c-1 118 -95 247
-205 283 -29 9 -58 21 -62 25 -11 9 32 50 99 95 96 64 384 183 447 185 16 0 5
-30 -40 -101 -53 -83 -93 -167 -148 -304 -20 -49 -38 -96 -42 -102 -4 -10 9
-13 48 -13 66 0 561 29 564 32 8 11 60 178 76 246 l20 85 -47 48 c-46 47 -51
49 -102 49 -54 0 -55 0 -132 76 l-78 75 11 37 c6 20 15 43 21 51 6 7 11 20 12
28 3 16 66 89 102 117 23 18 24 18 53 -10 l29 -28 38 37 c21 21 48 37 61 37
14 0 45 22 82 57 l59 56 0 67 0 66 44 22 c24 12 54 22 68 22 14 0 36 13 54 31
38 40 75 59 117 59 29 0 39 6 59 38 14 20 35 60 47 87 14 33 52 80 108 137 80
80 88 86 112 77 14 -6 37 -21 51 -34 14 -12 36 -26 50 -30 14 -4 39 -18 57
-31 17 -13 38 -24 46 -24 8 0 20 -7 27 -15 7 -8 16 -15 21 -15 4 0 47 -26 96
-57 109 -72 117 -77 173 -106 77 -42 104 -55 130 -65 14 -5 46 -19 71 -31 25
-11 53 -21 62 -21 9 0 18 -4 21 -9 3 -5 23 -12 43 -16 21 -4 42 -9 47 -12 4
-3 -46 -60 -112 -127 l-120 -121 16 -53 c14 -51 17 -54 76 -81 44 -21 84 -52
141 -110 44 -44 84 -81 90 -81 6 0 78 68 160 150 82 83 152 150 155 150 3 0
21 -27 39 -60 19 -33 38 -60 42 -60 4 0 13 -14 20 -32 7 -18 20 -39 29 -48 49
-52 90 -103 90 -113 0 -15 55 -60 133 -112 l58 -39 -122 -122 -122 -122 59 4
c50 4 5183 284 5206 284 9 0 8 1500 -1 1607 l-6 73 -4123 3150 -4123 3150
-1604 -2 -1603 -3 577 -1590 c472 -1299 574 -1591 562 -1595 -9 -3 -31 -13
-49 -23 -19 -10 -35 -17 -37 -15 -1 2 -265 728 -586 1613 l-585 1610 -3217 9
c-1770 4 -3220 6 -3223 3 -3 -2 490 -962 1095 -2133 l1101 -2129 -57 -3 c-31
-2 -59 1 -63 5 -4 4 -502 965 -1106 2135 l-1099 2128 -826 0 -826 0 -7 -4071z
m9568 691 c10 -27 15 -54 11 -60 -6 -10 -87 -52 -90 -47 -9 11 -36 110 -31
114 15 16 63 42 77 42 9 1 22 -17 33 -49z m413 -1140 c183 -503 333 -919 333
-923 0 -4 -26 -7 -57 -5 l-58 3 -331 913 -331 912 33 0 c18 0 36 5 39 11 25
39 45 -10 372 -911z m-9287 355 c9 -11 33 -15 88 -15 72 0 78 -2 109 -32 l33
-32 0 -176 c0 -175 0 -177 25 -200 21 -20 25 -33 25 -81 0 -32 -4 -60 -8 -63
-5 -3 -35 22 -67 54 l-59 60 -220 0 c-289 0 -266 -20 -266 229 0 239 -6 231
160 231 104 0 119 2 135 20 22 24 29 25 45 5z m3269 -249 c6 -7 28 -16 49 -20
20 -3 47 -14 59 -24 12 -9 413 -775 892 -1702 479 -927 877 -1686 884 -1688
10 -2 961 157 1034 173 23 5 24 -1 3 -50 -5 -11 -10 -29 -12 -40 -2 -11 -14
-23 -28 -28 -24 -7 -5204 -896 -5231 -898 -8 0 924 -315 2071 -700 2598 -871
2470 -827 2470 -848 0 -9 4 -21 9 -26 5 -6 13 -27 16 -47 l7 -37 -103 35 c-57
19 -1121 377 -2364 794 -1243 417 -2288 768 -2322 780 -53 18 -63 25 -68 51
-4 16 -4 42 0 58 l6 29 57 -19 c48 -17 57 -17 64 -5 5 8 23 19 41 24 17 6 973
171 2122 368 1150 196 2093 360 2097 363 4 3 -339 677 -763 1496 -423 820
-826 1599 -895 1733 -69 133 -121 242 -116 242 5 0 15 -6 21 -14z m6519 -1484
c62 -173 112 -316 109 -318 -2 -2 -17 2 -33 11 -16 8 -38 15 -50 15 -11 0 -28
8 -36 18 -13 15 -218 565 -218 585 0 4 26 7 57 5 l57 -3 114 -313z m152 -457
c0 -7 -81 -57 -85 -53 -2 2 -6 15 -10 31 -7 27 -7 27 44 27 28 0 51 -2 51 -5z
m180 -459 l112 -308 -25 -27 c-13 -14 -30 -37 -37 -49 -14 -29 -21 -24 -41 36
-12 36 -21 46 -35 44 -112 -16 -271 -47 -279 -54 -6 -5 32 -50 97 -116 104
-105 106 -107 87 -126 -10 -11 -19 -27 -19 -36 0 -22 -55 -76 -115 -114 -138
-85 -160 -103 -256 -206 -52 -56 -98 -109 -103 -118 -8 -14 -71 -99 -82 -111
-3 -3 -48 38 -102 91 l-97 97 -162 2 c-159 3 -164 2 -188 -21 -14 -13 -25 -18
-25 -12 0 24 -2 27 -22 49 -16 17 -25 20 -39 13 -10 -6 -38 -10 -64 -10 -25 0
-71 -9 -102 -20 -35 -12 -83 -20 -122 -20 -60 0 -68 3 -98 32 -18 18 -33 39
-33 48 0 9 -9 25 -20 35 -17 16 -20 31 -20 112 0 56 -5 101 -12 113 -10 16 -9
23 12 45 13 14 20 25 15 25 -5 0 -455 -76 -1000 -170 -545 -93 -997 -170
-1004 -170 -16 0 -5 53 17 90 9 14 16 26 16 26 1 1 456 80 1013 175 936 160
1012 174 1018 193 20 69 26 190 12 239 -7 27 -7 27 45 27 45 0 56 4 85 32 20
19 33 42 33 57 0 24 -35 71 -52 71 -5 0 -24 11 -42 25 -18 14 -38 25 -44 25
-7 0 -29 9 -49 20 -21 11 -46 20 -55 20 -10 0 -26 4 -36 10 -37 20 -89 39
-127 45 -22 4 -44 10 -50 15 -5 4 -37 10 -69 14 -33 4 -64 10 -70 15 -6 5 -41
12 -78 16 -37 3 -70 11 -73 16 -4 5 -19 9 -34 9 -16 0 -34 7 -41 15 -7 8 -21
15 -31 15 -42 0 -23 31 21 34 8 1 30 12 49 26 18 14 38 23 45 21 72 -22 452
-30 526 -11 19 5 75 11 125 14 l90 6 102 -102 103 -103 0 -170 0 -170 -112
-113 c-62 -62 -106 -111 -98 -108 8 3 166 30 350 62 l335 56 98 96 c95 94 97
98 97 142 0 40 5 51 35 80 l36 35 130 -131 129 -131 136 23 c75 13 138 25 141
27 2 3 -34 109 -80 236 -84 230 -84 232 -64 246 12 8 29 15 39 15 9 0 20 5 24
11 3 6 10 7 14 2 4 -4 58 -147 120 -317z m-2409 78 c6 -8 22 -14 35 -14 12 0
25 -4 28 -9 3 -4 37 -11 76 -15 38 -4 72 -11 75 -16 3 -5 37 -12 75 -16 39 -4
73 -11 77 -16 8 -14 -212 0 -262 17 -110 36 -214 102 -140 88 13 -3 30 -11 36
-19z m4974 -112 c-3 -3 -11 0 -18 7 -9 10 -8 11 6 5 10 -3 15 -9 12 -12z
m-4508 2 c-3 -3 -12 -4 -19 -1 -8 3 -5 6 6 6 11 1 17 -2 13 -5z m6835 -154
c63 -82 100 -160 141 -295 9 -27 30 -90 47 -140 46 -132 50 -221 16 -355 -15
-58 -29 -111 -32 -119 -3 -10 -52 32 -148 128 -137 136 -145 143 -179 140 -51
-5 -107 48 -107 101 0 20 -6 45 -14 56 -14 18 -16 18 -43 3 -15 -9 -41 -35
-58 -57 -20 -28 -44 -46 -75 -56 -33 -12 -72 -44 -150 -121 l-106 -105 -42 32
-42 32 47 48 46 47 -2 193 c-2 106 -4 231 -5 278 -1 47 3 104 9 128 l11 42 64
-65 c64 -64 65 -65 120 -65 l55 0 154 154 153 154 37 -37 c21 -20 67 -74 103
-121z m-2187 85 c17 -11 39 -27 50 -37 11 -9 31 -27 45 -38 31 -27 6 -15 -36
17 -17 13 -35 23 -40 23 -5 1 -25 14 -44 30 -19 17 -39 30 -46 30 -6 0 -17 7
-24 15 -10 12 -5 12 26 -3 22 -9 53 -26 69 -37z m-2512 -430 l26 -75 -36 -49
c-21 -27 -40 -48 -43 -46 -3 2 -16 35 -30 74 -22 64 -23 72 -8 88 8 10 23 33
32 51 9 17 20 32 24 32 5 0 20 -34 35 -75z m194 -533 l111 -307 -41 -37 c-23
-20 -45 -34 -49 -30 -4 4 -54 137 -111 297 l-105 290 37 47 c20 26 38 47 41
48 3 0 55 -138 117 -308z m-178 -866 c59 -40 141 -73 226 -90 l60 -12 -55 -36
c-30 -19 -68 -50 -85 -68 -56 -59 -155 -91 -183 -57 -23 27 -44 297 -23 297 5
0 32 -15 60 -34z m-3596 -1904 l1095 -367 -24 -48 c-14 -26 -28 -47 -33 -47
-5 0 -472 155 -1037 345 -770 258 -1033 350 -1044 366 -8 11 -27 35 -42 54
-27 32 -37 65 -19 65 5 0 501 -165 1104 -368z m2643 -217 c3 -8 -15 -88 -41
-177 -26 -90 -54 -192 -61 -227 -8 -35 -26 -86 -41 -112 -25 -46 -27 -48 -40
-29 -8 11 -19 34 -25 52 -15 46 -92 153 -131 182 -18 13 -58 34 -89 46 -32 12
-58 25 -58 30 0 16 69 68 132 100 34 18 68 36 74 41 6 5 53 31 105 59 98 52
164 65 175 35z m-1280 -239 c71 -25 141 -49 156 -55 l26 -10 -25 -49 -25 -49
-156 54 c-86 30 -158 55 -160 57 -5 5 41 96 49 96 3 0 64 -20 135 -44z m653
-222 c2 -2 -6 -18 -18 -37 -11 -19 -21 -41 -21 -50 0 -12 -36 -3 -181 45 -168
56 -179 61 -165 77 9 10 16 22 16 27 0 5 7 19 15 31 l15 21 168 -55 c92 -31
169 -57 171 -59z m-43 -411 c80 -41 234 -26 343 33 35 19 66 33 68 30 3 -3
-14 -23 -38 -45 l-44 -39 73 -518 c40 -285 74 -520 76 -521 6 -6 4399 -263
4404 -258 3 3 -40 151 -96 329 -56 178 -102 329 -102 335 0 6 8 11 18 11 9 0
31 9 48 19 l31 19 114 -364 114 -364 45 -1 c25 -1 90 -4 145 -8 99 -6 100 -6
97 -31 -2 -14 -9 -37 -15 -52 -10 -25 -17 -28 -57 -28 -25 0 -1098 63 -2385
139 -1287 76 -2342 137 -2343 136 -2 -2 16 -143 40 -314 48 -339 48 -336 -16
-288 -17 13 -38 26 -46 29 -12 4 -38 168 -124 779 -59 426 -110 787 -113 802
-6 28 -8 27 -104 -72 -81 -83 -104 -101 -129 -101 -36 0 -38 9 -48 207 l-7
143 -373 -181 c-205 -100 -375 -180 -377 -178 -8 8 17 95 33 116 10 13 169 96
367 192 l350 171 3 -53 c3 -50 5 -53 48 -74z m-946 -379 c-11 -38 -15 -42 -31
-33 -10 5 -25 22 -33 37 -14 27 -14 27 27 49 50 25 56 16 37 -53z m5679 -81
c1 -22 -25 -41 -76 -57 -21 -7 -23 -4 -23 24 0 22 12 46 37 77 l37 45 12 -33
c7 -19 13 -44 13 -56z m2269 78 c-1 -4 -309 -434 -683 -955 l-680 -946 -62 0
c-35 0 -63 2 -63 6 0 4 97 140 469 658 51 70 88 125 82 121 -11 -6 -552 21
-617 31 l-32 4 12 53 11 52 65 -3 c36 -2 171 -10 300 -18 129 -7 241 -14 248
-14 7 0 23 -11 36 -24 l22 -25 384 535 384 534 64 0 c35 0 62 -4 60 -9z
m-8138 -44 c0 -6 12 -23 27 -39 l27 -28 -248 -120 c-175 -86 -254 -119 -268
-114 -29 9 -88 45 -88 53 0 10 533 269 543 264 4 -2 7 -9 7 -16z m-684 -338
c10 -11 32 -27 49 -33 l30 -13 -90 -45 c-278 -140 -4616 -2238 -4627 -2238 -8
0 -22 -6 -33 -14 -11 -7 -40 -16 -65 -20 l-45 -7 31 33 c16 18 37 46 44 62 8
16 26 36 40 44 32 18 4633 2250 4641 2251 3 1 14 -8 25 -20z m2384 -1194 c9
-8 22 -15 28 -15 7 0 12 -4 12 -9 0 -5 3 -23 6 -41 l7 -32 -34 7 c-18 4 -45
15 -59 23 -14 9 -26 16 -26 16 -1 1 -5 20 -9 43 l-7 42 33 -9 c17 -5 39 -16
49 -25z m41 -251 l36 -22 35 -254 c19 -139 34 -254 33 -256 -5 -7 -82 11 -98
23 -14 10 -24 63 -52 261 -19 137 -35 256 -35 266 0 20 30 14 81 -18z m65
-675 c3 -5 13 -9 22 -9 38 -1 43 -17 76 -248 28 -200 30 -229 16 -217 -9 8
-21 15 -27 15 -5 0 -18 9 -28 20 -10 11 -26 20 -35 20 -15 0 -21 29 -44 203
-15 111 -29 209 -32 218 -4 13 1 15 21 11 14 -2 28 -8 31 -13z m62 -704 l0
-80 -13 80 c-8 44 -14 89 -14 99 -1 20 -1 20 14 0 10 -13 14 -43 13 -99z m84
-145 l35 0 16 -117 c22 -154 22 -152 -11 -120 -15 15 -33 27 -38 27 -6 0 -21
11 -34 25 -17 19 -26 46 -36 112 -18 120 -18 121 9 95 15 -14 36 -22 59 -22z
m98 -472 c0 -4 -25 -8 -55 -8 -45 0 -55 3 -56 18 0 9 -4 38 -8 64 l-8 46 64
-56 c35 -30 63 -59 63 -64z"/>
<path d="M9660 12593 c-80 -14 -146 -26 -148 -28 -6 -6 38 -80 66 -112 l28
-33 39 40 c22 22 45 40 53 40 7 0 38 23 68 51 50 48 66 71 47 68 -5 -1 -73
-12 -153 -26z"/>
<path d="M11830 19908 c5 -5 3693 -2822 3792 -2897 48 -36 60 -41 77 -32 11 6
959 92 2107 191 1148 99 2088 181 2089 182 1 2 0 576 -3 1276 l-5 1272 -1606
0 c-883 0 -2697 3 -4031 6 -1334 4 -2423 5 -2420 2z"/>
<path d="M17870 17065 c-1097 -96 -2015 -175 -2040 -177 l-44 -3 2051 -1567
c1129 -863 2055 -1568 2058 -1568 3 0 5 785 5 1745 0 1656 -1 1745 -17 1744
-10 -1 -916 -79 -2013 -174z"/>
<path d="M16816 5080 c-1995 -717 -3063 -1105 -3071 -1117 -7 -10 -632 -880
-1388 -1933 l-1375 -1915 3132 -3 3131 -2 112 112 113 113 0 109 0 109 102
103 102 104 67 0 c42 0 70 -5 77 -13 6 -7 12 -52 13 -100 1 -48 5 -87 8 -87
10 0 103 -62 135 -90 38 -34 52 -65 60 -135 7 -59 9 -62 89 -142 l82 -83 275
0 275 0 83 83 c78 79 82 84 82 128 0 50 43 231 64 269 8 14 16 39 19 55 7 44
175 328 243 412 19 23 34 46 34 52 0 6 6 11 14 11 8 0 16 6 19 13 3 7 66 -49
151 -133 l146 -144 82 3 83 2 47 47 47 47 10 1255 c19 2285 22 3970 8 3969 -6
0 -1388 -495 -3071 -1099z"/>
</g>
</svg>
